<svg width="33" height="33" viewBox="0 0 33 33" fill="none" xmlns="http://www.w3.org/2000/svg">
<g clip-path="url(#clip0_527_289)">
<path d="M15.0342 2.7257C15.035 3.23486 15.0342 3.74403 15.0342 4.25403C15.0333 4.96653 14.8133 5.24736 14.1292 5.4257C12.5325 5.84153 11.0508 6.50403 9.78083 7.5707C9.23083 8.03236 8.75 8.57653 8.27667 9.13486C8.92167 8.68653 9.60167 8.40653 10.3892 8.4557C11.1867 8.50486 11.8525 8.8282 12.37 9.4357C13.1833 10.3907 13.2633 11.7515 12.5775 12.7974C11.9042 13.8249 10.6058 14.2982 9.43333 13.939C8.71583 13.7199 8.1675 13.2815 7.795 12.6307C7.43 11.9907 7.35083 11.3024 7.5025 10.5799C7.46583 10.5715 7.42917 10.564 7.39333 10.5565C7.215 11.1332 7 11.7024 6.86667 12.289C6.46833 14.0474 6.53083 15.7932 7.0725 17.519C7.305 18.2574 7.17583 18.5707 6.505 18.9607C6.05583 19.2215 5.6075 19.4832 5.15417 19.7365C4.54333 20.0782 3.97167 19.8699 3.72417 19.2132C2.73167 16.574 2.615 13.889 3.31333 11.1632C3.33917 11.0649 3.3625 10.9657 3.4 10.8132C3.20917 10.8132 3.04917 10.8107 2.88917 10.814C2.52583 10.8207 2.16 10.8099 1.79917 10.844C1.21167 10.899 0.765 10.7165 0.5 10.1682V9.66986C1.43833 7.81986 2.3775 5.9707 3.31583 4.12153C3.35333 4.04736 3.3925 3.97403 3.43333 3.90153C3.80833 3.2382 4.57833 3.17403 5.05083 3.77736C5.46083 4.3007 5.85167 4.83903 6.25167 5.36986C6.31333 5.4507 6.37917 5.52736 6.45167 5.61736C7.35 4.66653 8.34083 3.8682 9.45833 3.2282C10.815 2.4507 12.2658 1.93986 13.8075 1.68903C14.5825 1.56236 15.0317 1.94736 15.0342 2.7257Z" fill="#FF782D"/>
<path d="M31.4408 10.8409C30.9217 10.845 30.4017 10.8217 29.8825 10.8117C29.7817 10.8092 29.6808 10.8109 29.5475 10.8109C29.6458 11.26 29.7458 11.6709 29.8258 12.085C30.2875 14.4892 30.085 16.8409 29.245 19.1384C28.9708 19.8884 28.4075 20.0959 27.7175 19.7017C27.285 19.4542 26.855 19.2025 26.4225 18.9542C25.77 18.5784 25.6333 18.2525 25.8583 17.5367C26.4575 15.63 26.4733 13.7142 25.9483 11.7934C25.835 11.3792 25.6683 10.9792 25.4825 10.5784C25.5967 11.3717 25.4908 12.1117 25.0525 12.7809C24.6083 13.4575 23.9792 13.8717 23.1825 14.0175C21.9592 14.2417 20.7058 13.5884 20.1667 12.4542C19.6225 11.3092 19.9225 9.93505 20.8883 9.11171C21.7442 8.38255 23.2575 8.06171 24.6067 9.16838C24.6283 9.15005 24.6492 9.13171 24.6708 9.11421C24.3783 8.78505 24.1017 8.44005 23.7892 8.13171C22.3983 6.76255 20.71 5.92838 18.8417 5.43255C18.1125 5.23921 17.9042 4.98088 17.9033 4.22588V2.76005C17.905 1.93921 18.3508 1.55421 19.1583 1.69255C21.9042 2.16171 24.2683 3.37171 26.23 5.35588C26.31 5.43671 26.3833 5.52505 26.4833 5.63671C26.8508 5.14921 27.1992 4.68755 27.5475 4.22505C27.66 4.07588 27.7683 3.92338 27.885 3.77755C28.3633 3.17921 29.1508 3.22671 29.5 3.90338C30.4517 5.74838 31.39 7.60005 32.3167 9.45755C32.6608 10.1475 32.215 10.8342 31.4408 10.8409Z" fill="#FF782D"/>
<path d="M26.5665 23.825C24.749 26.0075 22.479 27.48 19.7224 28.1892C19.6624 28.2042 19.6015 28.22 19.5432 28.2392C19.5249 28.245 19.5115 28.2642 19.4782 28.2917C19.6699 28.8617 19.864 29.44 20.0565 30.0175C20.3365 30.8559 19.934 31.4109 19.0424 31.4117C17.3274 31.4134 15.6124 31.4134 13.8974 31.4117C12.9915 31.4109 12.6015 30.8575 12.8907 29.9917C13.0807 29.4234 13.2707 28.8542 13.4624 28.2792C12.9249 28.105 12.399 27.9525 11.8849 27.765C9.67488 26.9584 7.84821 25.6125 6.35488 23.8034C5.90154 23.2534 6.00821 22.6425 6.62404 22.2817C7.09071 22.0092 7.55821 21.74 8.02738 21.4725C8.60404 21.1417 8.98738 21.1967 9.43654 21.6884C10.6999 23.0692 12.2082 24.0625 14.0274 24.5425C14.594 24.6917 15.1799 24.7667 15.7624 24.8442C14.0499 23.9509 13.3915 22.8434 13.7399 21.395C14.0432 20.1317 15.1932 19.24 16.499 19.2567C17.7999 19.2725 18.9232 20.1725 19.2032 21.425C19.5299 22.8842 18.8665 23.9884 17.1149 24.835C18.044 24.78 18.889 24.5984 19.709 24.2942C21.1807 23.7484 22.4182 22.8609 23.4765 21.7117C23.959 21.1884 24.3232 21.1342 24.9332 21.4859C25.3832 21.745 25.834 22.0017 26.2815 22.2642C26.9349 22.6475 27.0465 23.2484 26.5665 23.825Z" fill="#FF782D"/>
</g>
<defs>
<clipPath id="clip0_527_289">
<rect width="32" height="32" fill="white" transform="translate(0.5 0.5)"/>
</clipPath>
</defs>
</svg>
