<svg width="33" height="33" viewBox="0 0 33 33" fill="none" xmlns="http://www.w3.org/2000/svg">
<g clip-path="url(#clip0_527_1921)">
<path d="M32.0532 7.34419C32.3891 7.66919 32.5607 8.03669 32.3674 8.49085C32.1807 8.92919 31.8132 9.06419 31.3549 9.06252C29.5349 9.05419 27.7149 9.05919 25.8957 9.05919H25.4982V12.3917C25.5824 12.3984 25.6716 12.4109 25.7607 12.4109C26.3849 12.4134 27.0091 12.4109 27.6324 12.4125C28.3357 12.4142 28.7007 12.7834 28.7016 13.495C28.7032 14.7742 28.7024 16.0525 28.7024 17.3317C28.7024 21.9684 28.6957 26.605 28.7107 31.2425C28.7124 31.8209 28.5557 32.25 28.0166 32.5H20.2166C20.2191 31.6475 20.2232 30.795 20.2232 29.9425V13.5992C20.2232 12.7425 20.5541 12.4125 21.4099 12.4117C22.1066 12.4117 22.8032 12.41 23.4999 12.4075C23.5191 12.4075 23.5382 12.3959 23.5999 12.3759V12.0292C23.5999 8.59752 23.5991 5.16669 23.6024 1.73585C23.6024 1.56085 23.6107 1.37919 23.6582 1.21252C23.7774 0.790021 24.2124 0.514188 24.6424 0.564188C25.0841 0.615021 25.4299 0.965854 25.4641 1.40919C25.4774 1.59252 25.4657 1.77752 25.4657 1.99585H25.8382C27.6791 1.99585 29.5199 2.00002 31.3599 1.99335C31.8057 1.99169 32.1632 2.12669 32.3566 2.54502C32.5574 2.98002 32.4099 3.34669 32.0991 3.67919C31.5091 4.30835 30.9274 4.94669 30.3224 5.60335C30.3924 5.68085 30.4566 5.75669 30.5266 5.82669C31.0341 6.33419 31.5382 6.84419 32.0532 7.34419Z" fill="#FF782D"/>
<path d="M18.3491 20.6851C18.3508 24.6234 18.3475 28.5617 18.345 32.5001H10.9825C10.9816 28.5717 10.9791 24.6442 10.9808 20.7159C10.9808 20.1284 11.3625 19.7301 11.9533 19.7267C13.7616 19.7176 15.5708 19.7176 17.3791 19.7267C17.9591 19.7301 18.3483 20.1201 18.3491 20.6851Z" fill="#FF782D"/>
<path d="M9.11082 32.5001H1.49832C0.959151 32.2734 0.778317 31.8667 0.786651 31.2892C0.810817 29.5542 0.79415 27.8192 0.795817 26.0834C0.795817 25.3126 1.14665 24.9634 1.92165 24.9634C3.93748 24.9626 5.95415 24.9626 7.96998 24.9634C8.75498 24.9634 9.10665 25.3192 9.10748 26.1092C9.10915 28.2392 9.10998 30.3701 9.11082 32.5001Z" fill="#FF782D"/>
<path d="M17.62 9.02256C17.1392 9.24923 16.615 9.04423 16.3483 8.5209C16.1417 8.11506 15.9417 7.70756 15.7175 7.2584C15.645 7.38256 15.5917 7.46423 15.5458 7.55006C12.4825 13.2392 8.01 17.4134 2.10667 20.0492C1.28917 20.4142 0.965 20.3176 0.5 19.5867V19.0876C0.661667 18.6967 0.976667 18.4984 1.3525 18.3317C6.825 15.8984 10.975 12.0317 13.8375 6.77756C13.895 6.67173 13.9433 6.56173 14.0267 6.39256C13.4742 6.50256 12.99 6.60673 12.5025 6.6934C12.0833 6.76756 11.6767 6.5434 11.5042 6.16507C11.2608 5.63007 11.5575 5.0009 12.1425 4.8709C13.2375 4.6284 14.335 4.39923 15.435 4.17923C15.9725 4.07173 16.3117 4.2484 16.5567 4.7384C17.0508 5.72173 17.5417 6.70673 18.0258 7.69506C18.2883 8.2309 18.1108 8.7909 17.62 9.02256Z" fill="#FF782D"/>
</g>
<defs>
<clipPath id="clip0_527_1921">
<rect width="32" height="32" fill="white" transform="translate(0.5 0.5)"/>
</clipPath>
</defs>
</svg>
