<svg width="33" height="33" viewBox="0 0 33 33" fill="none" xmlns="http://www.w3.org/2000/svg">
<path d="M28.4384 6.46589C28.4367 6.22922 28.3992 5.98839 28.3417 5.75839C27.9592 4.21172 26.6817 3.22922 25.0292 3.22172C23.0434 3.21339 21.0584 3.22005 19.0726 3.22005C14.6959 3.22005 10.3201 3.21589 5.9434 3.22172C3.93673 3.22422 2.4934 4.64339 2.49173 6.61505C2.48673 12.5626 2.4884 18.5101 2.49423 24.4576C2.49423 24.7351 2.52423 25.0201 2.59006 25.2892C2.95923 26.8109 4.23173 27.8267 5.8334 27.8326C9.6484 27.8476 13.4634 27.8376 17.2792 27.8376C17.3401 27.8376 17.4017 27.8284 17.5117 27.8201C17.5117 27.7151 17.5176 27.6334 17.5109 27.5534C17.4276 26.5192 17.7284 25.5992 18.2542 24.7117C19.5026 22.6026 20.7059 20.4667 21.9434 18.3509C22.2609 17.8067 22.5751 17.2784 22.4609 16.6126C22.4584 16.5959 22.4751 16.5759 22.4967 16.5234C22.9942 16.6851 23.1301 16.2892 23.3151 15.9617C23.3609 15.8809 23.4076 15.8001 23.4542 15.7184C23.6742 15.3351 23.8942 14.9526 24.1434 14.5201H22.4792V10.5517H26.4367C26.4451 10.7134 26.4517 10.8609 26.4584 10.9901C26.7892 10.8684 27.0901 10.7184 27.4084 10.6517C27.7367 10.5834 28.0809 10.5976 28.4351 10.5742C28.4384 10.5276 28.4442 10.4776 28.4442 10.4276C28.4442 9.10672 28.4476 7.78589 28.4384 6.46589ZM8.45506 25.8209C7.48506 25.8209 6.5209 25.8534 5.5609 25.8084C5.01923 25.7826 4.53756 25.2542 4.5059 24.6934C4.4659 23.9817 4.4959 23.2651 4.4959 22.5234H8.45506V25.8209ZM8.45673 20.5009H4.50423V16.5426H8.45673V20.5009ZM8.4634 14.5059H4.5084V10.5509H8.4634V14.5059ZM8.4634 8.52255H4.48673V7.86089C4.48673 7.41422 4.47923 6.96755 4.48923 6.52089C4.50256 5.88755 4.9584 5.28339 5.5584 5.25089C6.51923 5.19922 7.48423 5.23672 8.4634 5.23672V8.52255ZM19.0167 17.0851C17.6842 17.8492 16.3559 18.6192 15.0251 19.3876C14.6659 19.5951 14.3067 19.8042 13.9467 20.0101C12.8542 20.6342 11.8026 20.0317 11.7984 18.7784C11.7951 17.8017 11.7976 16.8251 11.7976 15.8476C11.7976 14.8817 11.7959 13.9151 11.7984 12.9484C11.8017 11.6892 12.8534 11.0851 13.9434 11.7134C15.6426 12.6934 17.3409 13.6759 19.0409 14.6542C19.4967 14.9167 19.7767 15.2884 19.7876 15.8292C19.7984 16.4101 19.5059 16.8042 19.0167 17.0851ZM26.4484 8.51422H22.4667V5.23922C22.5567 5.23172 22.6451 5.21755 22.7334 5.21755C23.4917 5.21589 24.2501 5.21339 25.0084 5.21755C25.9092 5.22255 26.4442 5.75672 26.4476 6.65089C26.4501 7.26422 26.4484 7.87672 26.4484 8.51422Z" fill="#FF782D"/>
<path d="M25.5833 14.6951C23.5475 18.2226 21.5225 21.7309 19.4858 25.2592C20.6558 25.9342 21.7917 26.5901 22.9458 27.2559C24.9867 23.7209 27.0117 20.2126 29.0433 16.6917C27.87 16.0142 26.74 15.3626 25.5833 14.6951ZM25.735 19.7301C25.5433 20.0409 25.1608 20.1001 24.8558 19.9159C24.5675 19.7409 24.4375 19.3826 24.6033 19.0759C24.9383 18.4551 25.2892 17.8417 25.6667 17.2459C25.7642 17.0926 25.9842 17.0159 26.1483 16.9042C26.6758 16.9542 27.0217 17.4551 26.7925 17.8976C26.4675 18.5234 26.1058 19.1309 25.735 19.7301Z" fill="#FF782D"/>
<path d="M28.4442 24.4117C28.4375 26.385 27.03 27.8084 25.06 27.8375C24.7809 27.8409 24.5017 27.8375 24.145 27.8375C24.5392 27.155 24.8984 26.5267 25.2675 25.905C25.3025 25.8467 25.4 25.8167 25.4742 25.79C26.1184 25.5634 26.4625 25.1134 26.44 24.4309C26.4267 24.0184 26.5334 23.6717 26.7442 23.3217C27.3042 22.3909 27.8367 21.4425 28.4217 20.4292C28.4325 20.595 28.4442 20.6809 28.4442 20.7667C28.445 21.9817 28.4475 23.1967 28.4442 24.4117Z" fill="#FF782D"/>
<path d="M30.2957 14.51C30.1232 14.8508 29.9182 15.175 29.7099 15.5383C28.5407 14.8642 27.4041 14.2083 26.2466 13.5408C26.4707 13.1608 26.6599 12.7908 26.8941 12.4533C27.2641 11.9208 27.9741 11.7567 28.5583 12.0617C28.9899 12.2867 29.4124 12.5308 29.8233 12.7917C30.4158 13.1667 30.6124 13.8858 30.2957 14.51Z" fill="#FF782D"/>
<path d="M22.1967 28.3634C22.0009 28.5067 21.8534 28.6376 21.6859 28.7334C21.0917 29.0734 20.4951 29.4092 19.8917 29.7326C19.4392 29.9759 18.9209 29.7634 18.8926 29.2834C18.8434 28.4351 18.8634 27.5826 18.8584 26.7309C18.8584 26.6617 18.8926 26.5909 18.9234 26.4734C20.0234 27.1084 21.0876 27.7234 22.1967 28.3634Z" fill="#FF782D"/>
</svg>
