<svg width="33" height="33" viewBox="0 0 33 33" fill="none" xmlns="http://www.w3.org/2000/svg">
<g clip-path="url(#clip0_527_199)">
<path d="M24.5969 23.585C24.2035 19.0375 20.0419 15.675 15.4927 16.2283C11.1135 16.7617 7.90855 20.6792 8.36272 25.0767C8.72188 28.5458 10.6435 30.8767 13.9144 32.0692C14.511 32.2875 15.161 32.36 15.7869 32.5H17.1594C17.311 32.4742 17.4627 32.445 17.6152 32.4225C21.9444 31.785 24.9744 27.9492 24.5969 23.585ZM17.6485 29.49C17.5727 29.5217 17.4969 29.5525 17.4077 29.5883V30.9817H15.5452V29.6017C14.0294 28.8783 13.266 27.8325 13.3419 26.5658H15.1477C15.171 26.645 15.1952 26.7108 15.2094 26.7792C15.3594 27.4858 15.9294 27.905 16.6394 27.8283C17.271 27.7608 17.7744 27.1833 17.7619 26.5408C17.7477 25.8542 17.2202 25.295 16.511 25.275C15.5685 25.2483 14.7669 24.9242 14.1335 24.2233C12.6727 22.6075 13.2327 20.0758 15.2469 19.215C15.4769 19.1167 15.5585 19.0067 15.5427 18.7617C15.5202 18.4117 15.5369 18.0583 15.5369 17.6817H17.4085C17.4085 18.07 17.4227 18.4417 17.4035 18.8117C17.3927 19.0225 17.4652 19.1125 17.6594 19.1967C18.8394 19.7075 19.4919 20.6142 19.6202 21.895C19.626 21.955 19.6202 22.0158 19.6202 22.0967H17.7902C17.7702 22.0192 17.7469 21.9417 17.7302 21.8625C17.586 21.1883 16.991 20.7592 16.3077 20.8375C15.6652 20.9108 15.1535 21.5133 15.1852 22.16C15.2194 22.8408 15.7427 23.36 16.4319 23.3958C18.0194 23.4775 19.1844 24.3817 19.5352 25.8042C19.9119 27.3342 19.121 28.8808 17.6485 29.49Z" fill="#FF782D"/>
<path d="M8.8725 17.4951C8.87083 17.6634 8.79833 17.8609 8.69417 17.9934C7.97917 18.8976 7.40833 19.8793 7.02333 20.9676C6.97333 21.1076 6.93833 21.2251 6.7375 21.2243C4.65833 21.2134 2.57917 21.2126 0.5 21.2084V19.3368H4.10833V12.9801H8.88083V13.3159C8.88083 14.7093 8.88667 16.1018 8.8725 17.4951Z" fill="#FF782D"/>
<path d="M32.4267 19.3475V21.2025C32.3251 21.2084 32.2251 21.2192 32.1259 21.2192C30.1926 21.22 28.2592 21.215 26.3267 21.2259C26.0909 21.2267 25.9817 21.16 25.9034 20.9342C25.5309 19.8534 24.9576 18.8842 24.2476 17.99C24.1484 17.8642 24.0726 17.6784 24.0726 17.5209C24.0634 11.9717 24.0651 6.42255 24.0651 0.873381V0.569214H28.8284V19.3475H32.4267Z" fill="#FF782D"/>
<path d="M22.1668 4.70422V15.9826C21.4159 15.6259 20.6768 15.2067 19.8901 14.9201C19.1059 14.6342 18.2726 14.4817 17.4268 14.2626V4.70422H22.1668Z" fill="#FF782D"/>
<path d="M15.5123 8.84924V14.2634C14.6806 14.4801 13.8406 14.6359 13.0481 14.9234C12.2673 15.2076 11.5339 15.6251 10.7739 15.9867V8.84924H15.5123Z" fill="#FF782D"/>
</g>
<defs>
<clipPath id="clip0_527_199">
<rect width="32" height="32" fill="white" transform="translate(0.5 0.5)"/>
</clipPath>
</defs>
</svg>
