<svg width="33" height="33" viewBox="0 0 33 33" fill="none" xmlns="http://www.w3.org/2000/svg">
<g clip-path="url(#clip0_527_2055)">
<path d="M32.4275 9.98169H0.5V30.005C0.546667 30.1734 0.5875 30.345 0.6425 30.5109C1.02 31.655 2.08417 32.4292 3.3175 32.435C5.12583 32.4434 6.935 32.4375 8.74333 32.4375C15.6567 32.4375 22.5692 32.4384 29.4817 32.4375C30.9 32.4367 31.9983 31.635 32.3367 30.3425C32.3992 30.1042 32.4333 29.8509 32.4333 29.605C32.4383 23.1392 32.4375 16.6734 32.4375 10.2075C32.4375 10.1467 32.4325 10.085 32.4275 9.98169ZM11.58 24.6042C11.2308 25.0384 10.6692 25.0659 10.17 24.6667C8.67667 23.4734 7.185 22.28 5.69417 21.0842C5.0825 20.5934 5.08083 19.9559 5.69167 19.4659C7.19 18.2634 8.69 17.0625 10.1908 15.8642C10.6717 15.4809 11.2325 15.515 11.5775 15.94C11.9308 16.3759 11.8433 16.9375 11.3517 17.3334C10.2342 18.2309 9.11333 19.1234 7.99417 20.0184C7.89917 20.095 7.80583 20.1725 7.68083 20.2759C8.1925 20.685 8.67583 21.0734 9.15917 21.46C9.88917 22.0442 10.62 22.6259 11.3483 23.2117C11.8417 23.6092 11.9317 24.1675 11.58 24.6042ZM20.0825 14.2117C18.2467 18.5042 16.4075 22.795 14.5675 27.085C14.3667 27.5534 14.0158 27.7875 13.5875 27.7542C13.1858 27.7234 12.8167 27.4375 12.765 27.0275C12.735 26.7859 12.7875 26.5075 12.8842 26.2809C14.415 22.6817 15.9592 19.0884 17.5 15.4934C17.8025 14.7875 18.0992 14.0792 18.4092 13.3767C18.6042 12.9359 19.0425 12.7125 19.4733 12.81C19.9033 12.9067 20.2133 13.2967 20.2083 13.8209C20.1833 13.8992 20.1475 14.0617 20.0825 14.2117ZM27.2867 21.0517C25.765 22.2759 24.24 23.495 22.7117 24.7092C22.2525 25.075 21.6833 25.0192 21.3517 24.5975C21.0175 24.1734 21.0942 23.615 21.5492 23.2484C22.6817 22.3367 23.8192 21.43 24.9542 20.5217C25.0425 20.45 25.1292 20.3767 25.2575 20.2709C24.5133 19.6742 23.8017 19.1042 23.09 18.5342C22.5792 18.125 22.0658 17.7192 21.5583 17.3075C21.0908 16.9275 21.0133 16.3609 21.3642 15.935C21.705 15.5209 22.2625 15.48 22.7267 15.8492C24.2467 17.0592 25.7633 18.2709 27.2775 19.4875C27.8417 19.9409 27.8467 20.6017 27.2867 21.0517Z" fill="#FF782D"/>
<path d="M32.4367 3.55006C32.4333 1.82923 31.2317 0.625892 29.5125 0.625892C20.8225 0.624226 12.1317 0.624226 3.44167 0.625059C1.95083 0.625892 0.8975 1.46339 0.5525 2.91339C0.540833 2.96339 0.5175 3.01006 0.5 3.05756V8.11006H32.4225C32.4283 7.99089 32.4367 7.89089 32.4367 7.79089C32.4375 6.37756 32.44 4.96339 32.4367 3.55006ZM5.23667 6.23756C4.73167 6.23589 4.30833 5.81256 4.30583 5.30673C4.30333 4.79006 4.74333 4.35756 5.26 4.36839C5.76583 4.37923 6.18167 4.80923 6.175 5.31423C6.16833 5.82006 5.74167 6.24006 5.23667 6.23756ZM8.97167 6.23756C8.46667 6.23089 8.04667 5.80423 8.04917 5.29923C8.05083 4.79339 8.47417 4.37006 8.97917 4.36839C9.485 4.36673 9.91167 4.78589 9.9175 5.29173C9.92417 5.80923 9.48917 6.24423 8.97167 6.23756ZM12.7208 6.23756C12.2158 6.23506 11.7933 5.81173 11.7917 5.30589C11.79 4.78839 12.2292 4.35673 12.7467 4.36839C13.2517 4.38006 13.6675 4.81006 13.6608 5.31506C13.6533 5.82089 13.2258 6.24006 12.7208 6.23756ZM27.5683 6.23839C26.6758 6.24006 25.7833 6.23923 24.89 6.23923C23.9975 6.23923 23.105 6.24006 22.2125 6.23839C21.5792 6.23756 21.1533 5.86506 21.1483 5.31089C21.1433 4.75673 21.5708 4.36839 22.1958 4.36839C23.9917 4.36673 25.7867 4.36673 27.5825 4.36839C28.21 4.36839 28.6358 4.75423 28.6308 5.31006C28.6267 5.86589 28.2033 6.23756 27.5683 6.23839Z" fill="#FF782D"/>
</g>
<defs>
<clipPath id="clip0_527_2055">
<rect width="32" height="32" fill="white" transform="translate(0.5 0.5)"/>
</clipPath>
</defs>
</svg>
