<svg width="33" height="33" viewBox="0 0 33 33" fill="none" xmlns="http://www.w3.org/2000/svg">
<g clip-path="url(#clip0_527_1535)">
<path d="M27.2426 22.9L27.3759 23.0333C27.6786 23.3386 28.0536 23.5623 28.466 23.6838C28.8784 23.8052 29.3148 23.8204 29.7346 23.728C30.1477 23.6413 30.5323 23.4521 30.8531 23.1779C31.1739 22.9036 31.4207 22.5532 31.5706 22.1586C32.3067 20.2257 32.6587 18.1677 32.6066 16.1C32.4565 12.0386 30.7861 8.18194 27.9263 5.29427C25.0666 2.40661 21.2263 0.698781 17.1666 0.509298C15.0199 0.434655 12.8802 0.793018 10.875 1.56302C8.86973 2.33302 7.04008 3.4989 5.49508 4.99114C3.95008 6.48339 2.72137 8.27144 1.88219 10.2487C1.04301 12.226 0.610551 14.352 0.610596 16.5C0.615536 20.7419 2.30283 24.8087 5.30234 27.8082C8.30186 30.8077 12.3686 32.495 16.6106 32.5C17.0613 32.5 17.5039 32.4706 17.9439 32.4333C18.2778 32.4052 18.5888 32.2524 18.8151 32.0053C19.0414 31.7582 19.1664 31.435 19.1653 31.1L19.1226 26.316C19.1118 25.3706 19.383 24.4435 19.9016 23.6529C20.4202 22.8624 21.1626 22.2444 22.034 21.8778C22.9055 21.5112 23.8664 21.4126 24.7942 21.5947C25.7219 21.7767 26.5743 22.2312 27.2426 22.9ZM23.3199 11.2333C23.7022 11.1319 24.106 11.146 24.4803 11.2741C24.8545 11.4021 25.1824 11.6382 25.4224 11.9526C25.6625 12.267 25.8039 12.6455 25.8289 13.0402C25.8538 13.435 25.7612 13.8282 25.5626 14.1703C25.3641 14.5124 25.0686 14.788 24.7134 14.9621C24.3583 15.1363 23.9595 15.2012 23.5675 15.1487C23.1754 15.0962 22.8078 14.9287 22.5109 14.6672C22.2141 14.4058 22.0015 14.0622 21.8999 13.68C21.8325 13.4261 21.8157 13.1614 21.8506 12.901C21.8854 12.6406 21.9712 12.3897 22.1031 12.1625C22.235 11.9353 22.4103 11.7363 22.6191 11.5768C22.8279 11.4174 23.066 11.3007 23.3199 11.2333ZM11.0133 23.1C10.631 23.2014 10.2272 23.1872 9.85292 23.0592C9.47868 22.9311 9.15081 22.695 8.91076 22.3806C8.67071 22.0663 8.52927 21.6878 8.50431 21.2931C8.47935 20.8983 8.572 20.505 8.77055 20.1629C8.96909 19.8208 9.26461 19.5453 9.61975 19.3711C9.97488 19.197 10.3737 19.1321 10.7657 19.1845C11.1578 19.237 11.5254 19.4046 11.8222 19.666C12.1191 19.9275 12.3317 20.271 12.4333 20.6533C12.5007 20.9072 12.5175 21.1719 12.4826 21.4323C12.4478 21.6926 12.362 21.9436 12.2301 22.1708C12.0982 22.398 11.9229 22.597 11.7141 22.7564C11.5053 22.9159 11.2672 23.0326 11.0133 23.1ZM11.0133 15.1C10.631 15.2014 10.2272 15.1872 9.85292 15.0592C9.47868 14.9311 9.15081 14.695 8.91076 14.3806C8.67071 14.0663 8.52927 13.6878 8.50431 13.2931C8.47935 12.8983 8.572 12.505 8.77055 12.1629C8.96909 11.8208 9.26461 11.5453 9.61975 11.3711C9.97488 11.197 10.3737 11.1321 10.7657 11.1845C11.1578 11.237 11.5254 11.4046 11.8222 11.666C12.1191 11.9275 12.3317 12.271 12.4333 12.6533C12.5007 12.9072 12.5175 13.1719 12.4826 13.4323C12.4478 13.6926 12.362 13.9436 12.2301 14.1708C12.0982 14.398 11.9229 14.597 11.7141 14.7564C11.5053 14.9159 11.2672 15.0326 11.0133 15.1ZM17.6799 11.1C17.2976 11.2014 16.8938 11.1872 16.5196 11.0592C16.1453 10.9311 15.8175 10.695 15.5774 10.3806C15.3374 10.0663 15.1959 9.6878 15.171 9.29305C15.146 8.89831 15.2387 8.50502 15.4372 8.16293C15.6358 7.82084 15.9313 7.5453 16.2864 7.37115C16.6416 7.197 17.0403 7.13206 17.4324 7.18455C17.8244 7.23703 18.1921 7.40459 18.4889 7.66602C18.7857 7.92745 18.9984 8.27102 19.0999 8.6533C19.1674 8.90719 19.1842 9.17188 19.1493 9.43225C19.1144 9.69263 19.0286 9.94359 18.8968 10.1708C18.7649 10.398 18.5896 10.597 18.3808 10.7564C18.172 10.9159 17.9338 11.0326 17.6799 11.1Z" fill="#FF782D"/>
</g>
<defs>
<clipPath id="clip0_527_1535">
<rect width="32" height="32" fill="white" transform="translate(0.5 0.5)"/>
</clipPath>
</defs>
</svg>
