<svg width="40" height="30" viewBox="0 0 40 30" fill="none" xmlns="http://www.w3.org/2000/svg">
<g clip-path="url(#clip0_1_2138)">
<path d="M16.8234 29.4566C11.3396 27.4703 5.70868 26.8828 0 26.5024V1.37451C0.177608 1.57104 0.299517 1.69084 0.40461 1.82431C1.46185 3.16005 2.52855 4.48738 3.55742 5.84309C3.75709 6.10582 3.90422 6.48311 3.90528 6.8089C3.92629 11.7178 3.92629 16.6267 3.90423 21.5357C3.90107 22.1284 3.98935 22.3838 4.67666 22.4584C7.96084 22.8199 11.2313 23.2792 14.361 24.4236C14.7593 24.5697 14.9716 24.7883 15.1209 25.1761C15.6558 26.5759 16.2254 27.9621 16.8234 29.4566Z" fill="#FF782D"/>
<path d="M39.3007 1.36401V26.5024C33.6109 26.8849 27.9832 27.4598 22.5288 29.4471C22.5856 29.2569 22.6213 29.0919 22.6833 28.9385C23.1877 27.6742 23.7101 26.4173 24.1977 25.1467C24.3385 24.7789 24.5445 24.5718 24.9176 24.4341C27.4913 23.4894 30.1702 23.0269 32.8711 22.6602C33.5058 22.574 34.1416 22.4584 34.7796 22.4363C35.2903 22.4195 35.3965 22.2146 35.3954 21.7427C35.3796 16.8327 35.3923 11.9238 35.3765 7.01384C35.3744 6.50414 35.4984 6.10373 35.8242 5.70648C36.8625 4.43485 37.8662 3.13274 38.8856 1.84429C38.9938 1.70662 39.1136 1.57946 39.3007 1.36401Z" fill="#FF782D"/>
<path d="M17.4918 16.8643C17.4834 17.7503 17.9269 18.3682 18.6972 18.7928C18.8832 18.8948 19.1165 19.1365 19.1176 19.3151C19.1418 22.7811 19.1355 26.2471 19.1323 29.7131C19.1323 29.7625 19.1029 29.8129 19.043 30C18.5816 28.8587 18.1633 27.834 17.7535 26.8062C16.2832 23.129 14.8098 19.4517 13.3585 15.7661C13.2534 15.4971 13.2334 15.1387 13.3112 14.8613C13.7736 13.225 14.2633 11.5971 14.7751 9.97546C14.8991 9.58451 14.8287 9.37223 14.4945 9.13051C11.8462 7.21465 8.88463 5.99347 5.76125 5.11173C5.46174 5.02766 5.14751 4.81957 4.94993 4.57891C3.90845 3.30938 2.90166 2.01147 1.88435 0.721977C1.73827 0.537012 1.60165 0.344691 1.40723 0.0830078C6.42334 0.360455 10.914 1.90743 15.0305 4.56104C16.2748 5.36291 17.4624 6.25305 18.6825 7.09275C19.0041 7.31449 19.1512 7.56882 19.146 7.98604C19.1228 10.089 19.1281 12.1929 19.1428 14.2969C19.146 14.6584 19.0671 14.8571 18.6993 15.0168C17.9174 15.3563 17.5002 16.0047 17.4918 16.8643Z" fill="#FF782D"/>
<path d="M37.8692 0.137673C37.7031 0.353114 37.5381 0.569607 37.37 0.783998C36.3653 2.05878 35.3711 3.34197 34.3443 4.59889C34.1583 4.8259 33.863 5.02347 33.5803 5.10229C30.4727 5.97142 27.5322 7.19155 24.8838 9.06852C24.4918 9.34597 24.4014 9.59084 24.5517 10.0564C25.0688 11.6559 25.5385 13.2702 26.0041 14.8844C26.0703 15.1146 26.0924 15.4099 26.0073 15.6253C24.1408 20.3314 22.2565 25.0301 20.3742 29.7299C20.3543 29.7814 20.3143 29.8266 20.2303 29.959C20.1998 29.7572 20.1672 29.6374 20.1672 29.5176C20.1641 26.1704 20.1704 22.8232 20.1577 19.477C20.1556 19.1092 20.2513 18.921 20.6107 18.7613C21.3873 18.4145 21.8056 17.7692 21.813 16.9074C21.8193 16.0173 21.3905 15.3636 20.5886 15.0074C20.2534 14.8581 20.1556 14.6858 20.1577 14.34C20.1714 12.1961 20.1567 10.0511 20.1777 7.90724C20.1798 7.68234 20.2902 7.37652 20.4573 7.2462C24.351 4.22056 28.5232 1.72669 33.4206 0.698872C34.8635 0.395152 36.3358 0.229104 37.7945 0C37.8187 0.0462412 37.8439 0.0914314 37.8692 0.137673Z" fill="#FF782D"/>
</g>
<defs>
<clipPath id="clip0_1_2138">
<rect width="39.3008" height="30" fill="white"/>
</clipPath>
</defs>
</svg>
